<?xml version="1.0" encoding="utf-8"?>
<!-- Generator: Adobe Illustrator 25.0.0, SVG Export Plug-In . SVG Version: 6.00 Build 0)  -->
<svg version="1.1" id="Layer_1" xmlns="http://www.w3.org/2000/svg" xmlns:xlink="http://www.w3.org/1999/xlink" x="0px" y="0px"
	 viewBox="0 0 612 792" style="enable-background:new 0 0 612 792;" xml:space="preserve">
<style type="text/css">
	.st0{display:none;}
	.st1{display:inline;}
	.st2{clip-path:url(#SVGID_2_);fill:url(#XMLID_2_);}
	.st3{clip-path:url(#SVGID_4_);fill:url(#XMLID_3_);}
	.st4{fill:#FFBE00;}
	.st5{fill:#00AFFF;}
	.st6{fill:#FFD68E;}
	.st7{fill:#7D501E;}
	.st8{fill:#FFFFFF;}
	.st9{fill:#FF5A64;}
	.st10{fill:#FF0000;}
	.st11{fill:#FCBA58;}
	.st12{clip-path:url(#SVGID_6_);}
	.st13{opacity:0.4;}
	.st14{fill:#C8C8C8;}
	.st15{fill:#FFA000;}
	.st16{clip-path:url(#SVGID_8_);}
</style>
<g id="XMLID_5_">
	<g id="XMLID_136_" class="st0">
		<g class="st1">
			<defs>
				<rect id="SVGID_1_" y="-11" width="612" height="792"/>
			</defs>
			<clipPath id="SVGID_2_">
				<use xlink:href="#SVGID_1_"  style="overflow:visible;"/>
			</clipPath>
			
				<linearGradient id="XMLID_2_" gradientUnits="userSpaceOnUse" x1="306" y1="-402.0103" x2="306" y2="1215.8898" gradientTransform="matrix(1 0 0 -1 0 791.8898)">
				<stop  offset="0" style="stop-color:#FDB913"/>
				<stop  offset="6.962367e-03" style="stop-color:#FDB913"/>
				<stop  offset="0.1746" style="stop-color:#FFC808"/>
				<stop  offset="0.3402" style="stop-color:#FFD100"/>
				<stop  offset="0.5" style="stop-color:#FFD400"/>
				<stop  offset="0.5631" style="stop-color:#FFCB05"/>
				<stop  offset="0.6662" style="stop-color:#FEC10F"/>
				<stop  offset="0.7915" style="stop-color:#FDBA12"/>
				<stop  offset="1" style="stop-color:#FDB913"/>
			</linearGradient>
			<polygon id="XMLID_139_" class="st2" points="306.7,-424 305.3,-424 -364,230.3 -364,539.7 305.3,1193.9 306.7,1193.9 976,539.7 
				976,230.3 			"/>
		</g>
		<g class="st1">
			<defs>
				<rect id="SVGID_3_" y="-11" width="612" height="792"/>
			</defs>
			<clipPath id="SVGID_4_">
				<use xlink:href="#SVGID_3_"  style="overflow:visible;"/>
			</clipPath>
			
				<linearGradient id="XMLID_3_" gradientUnits="userSpaceOnUse" x1="306" y1="-13.6102" x2="306" y2="862.5898" gradientTransform="matrix(1 0 0 -1 0 791.8898)">
				<stop  offset="4.135833e-07" style="stop-color:#0072BC"/>
				<stop  offset="0.7976" style="stop-color:#00AEEF"/>
			</linearGradient>
			<rect id="XMLID_138_" x="170.8" y="-70.7" class="st3" width="270.4" height="876.2"/>
		</g>
	</g>
</g>
<g>
	<path class="st4" d="M306.4,69.9c-1.9,2.8-280.6,265.6-280.6,265.6l5.6,134.1l274.7,250.7l280.1-264V335.6L306.4,69.9z"/>
	<polygon class="st5" points="180.3,192.7 180.3,605.8 306.1,720.4 431.7,605.8 431.7,183.7 306,69.9 	"/>
	<g>
		<path d="M306.1,720.4l93.1-82c4.2-14,6.5-29.2,6.5-45.1c0-70.2-44.6-127.2-99.5-127.2c-55,0-99.5,56.9-99.5,127.2
			c0,12.9,1.5,25.3,4.3,37L306.1,720.4z"/>
		<g>
			<ellipse class="st6" cx="305.8" cy="488.9" rx="31.8" ry="19.6"/>
		</g>
		<g>
			<g>
				<g>
					<path class="st6" d="M294.4,495.1c-2.4-0.4-59.4-11-83.3-32.7c-14.9-13.6-22.6-32.9-22.9-57.4c0-0.7,0-1.2,0-1.6
						c-0.1-2.2-0.1-11.1-0.1-20.6c0-9.5,0-21.4-0.1-22.8c-0.3-2.2-1.6-12.9-1.7-13.3l-2.1-17.9l-2.2-14.2
						c-0.3-2.4-6.3-56.2,23.3-85.1c31.5-30.7,83.5-47.2,132.5-42c0,0,0.2,0,0.2,0c48.5,8.5,94,38.7,115.8,76.8
						c20.5,35.9-0.1,86-1,88.1l-6.1,13.1l-7,16.7c-0.2,0.4-4.3,10.3-5.3,12.4c-0.5,1.2-3.8,12.7-6.4,21.8
						c-2.6,9.1-5.1,17.7-5.8,19.8c-0.1,0.3-0.3,0.8-0.5,1.5c-7.1,23.5-19.8,39.9-37.9,48.9c-28.9,14.3-86.6,8.7-89.1,8.5
						c0,0-0.1,0-0.1,0C294.4,495.1,294.4,495.1,294.4,495.1z"/>
				</g>
				<g>
					<path d="M337.3,190.2c50.8,8.9,93.8,40.4,113.8,75.5c20.1,35.1-1.2,85.7-1.2,85.7l-6,13.1l-7,16.7c0,0-4.3,10.2-5.3,12.3
						c-1,2.1-10.8,37.6-12.3,41.8c-1.5,4.2-8.4,34.7-36.9,48.8c-28.5,14.1-87.5,8.2-87.5,8.2s-58.4-10.6-81.9-32
						c-23.5-21.4-21.8-52.6-22.1-57.1c-0.3-4.5,0.1-41.4-0.3-43.6c-0.3-2.3-1.7-13.3-1.7-13.3l-2.1-18l-2.2-14.2
						c0,0-6.5-54.4,22.4-82.7C236,203.2,285.9,184.8,337.3,190.2 M338,184.7c-0.1,0-0.1,0-0.2,0c-25.3-2.7-51.5,0.2-75.8,8.2
						c-23.2,7.7-43.6,19.6-58.9,34.5c-30.6,29.8-24.4,85-24.1,87.3c0,0.1,0,0.1,0,0.2l2.2,14.1l2.1,17.9c0.1,0.5,1.3,10.8,1.7,13.4
						c0.1,1.8,0.1,13.7,0.1,22.4c0,11.5,0,18.7,0.1,20.8c0,0.3,0,0.8,0,1.4c0.1,4.1,0.2,13.6,3.2,24.7c3.8,14,10.7,25.7,20.7,34.7
						c24.4,22.3,82.2,32.9,84.7,33.4c0.1,0,0.1,0,0.2,0c0.1,0,0.1,0,0.2,0c2.5,0.2,60.9,5.9,90.6-8.8c12.1-6,22-15.3,29.5-27.7
						c5.9-9.8,8.7-19,9.8-22.9c0.2-0.6,0.3-1.1,0.4-1.4c0.7-2,2.7-8.8,5.8-19.9c2.4-8.4,5.7-19.8,6.3-21.5c1.1-2.3,5.1-12,5.3-12.4
						l7-16.6l6-13c0-0.1,0.1-0.1,0.1-0.2c0.9-2.2,22.1-53.5,0.9-90.6c-10.6-18.5-26.9-35.6-47.1-49.4
						c-21.2-14.5-45.6-24.4-70.6-28.8C338.2,184.7,338.1,184.7,338,184.7L338,184.7z"/>
				</g>
			</g>
			<g>
				<path class="st7" d="M432.1,380c0,0,27.3-70.9,9-94.7c-18.3-23.8-29.6-30.7-53.2-29.1c-23.6,1.6-48.1-50.4-48.1-50.4l7.4-16.3
					c0,0,88.6,24.2,113,85.5c0,0,12.3,49.7-20.4,106.1l-2.9,7.1l-3.2,7.5L432.1,380z"/>
			</g>
			<g>
				<path class="st7" d="M194.3,346.6c0,0-6.7-75.6,17.5-93.5s36.9-21.3,59.1-13.3c22.2,8,60.2-35.2,60.2-35.2l-2.7-17.7
					c0,0-91.8-1.1-132.2,51c0,0-25.5,44.4-9.6,107.6l0.9,7.7l1,8.1L194.3,346.6z"/>
			</g>
			<g>
				<path class="st8" d="M329.8,404.1c0,0,16.5-4.7,48.2,1c0,0,13.3,2.3,20.5,5.7c0,0-13.9,21.1-30.3,22.4
					c-16.4,1.2-26.2-2.5-33.6-11.9C328.3,414.7,329.8,404.1,329.8,404.1z"/>
				<path d="M354.9,434.3c-9.2-1.3-15.9-5.2-21.4-12.1c-6.5-7-5.1-17.8-5-18.3c0.1-0.5,0.5-1,1-1.1c0.7-0.2,17.2-4.8,48.8,1
					c0.5,0.1,13.5,2.4,20.8,5.8c0.4,0.2,0.6,0.5,0.8,0.9c0.1,0.4,0,0.8-0.2,1.1c-0.6,0.9-14.4,21.7-31.3,23
					C363.2,434.9,358.8,434.9,354.9,434.3z M331.1,405.3c-0.2,2.6-0.2,10.2,4.4,15.1c0,0,0,0.1,0.1,0.1c7.2,9.1,16.9,12.5,32.4,11.3
					c13.1-1,24.9-15.8,28.3-20.4c-7.2-2.9-18.4-4.9-18.6-4.9C350.9,401.7,334.9,404.4,331.1,405.3z"/>
			</g>
			<g>
				<path class="st5" d="M381.3,406.7c-3.7,9.4-14.5,20.7-28.8,18.7c-14.3-2-19.5-21.5-19.5-21.5l37.7,0.3L381.3,406.7z"/>
				<path d="M352.4,426.7c-15-2.1-20.5-21.7-20.7-22.5c-0.1-0.4,0-0.9,0.2-1.2c0.3-0.3,0.7-0.5,1.1-0.5l37.7,0.3c0.1,0,0.2,0,0.3,0
					l10.6,2.6c0.4,0.1,0.7,0.4,0.9,0.7c0.2,0.4,0.2,0.8,0.1,1.2C379,416.3,368,428.9,352.4,426.7z M335,405.3
					c1.7,4.7,7.1,17.2,17.8,18.7c13.2,1.9,22.8-8.3,26.6-16.3l-8.8-2.1L335,405.3z"/>
			</g>
			<g>
				<path d="M338.2,402.5c0,0-0.3,11.9,14.1,16.8c14.5,4.9,24.4-13.8,24.4-13.8S352.8,399.3,338.2,402.5z"/>
			</g>
			<g>
				<path d="M344.7,385.2c0,0-10.4,2.5-12.4,6.2c-2,3.7-3.9,6.2-1.9,1.5C332.3,388.1,335.5,386.7,344.7,385.2z"/>
			</g>
			<g>
				<path d="M335.5,377.6c0,0-1.4,0.7,3.7,2.3s24.1,6.2,26,6.8c1.9,0.5,13.3,4.5,13.3,4.5l16.3,6c0,0,2.1-0.1-0.5-0.9
					s-28.6-11-28.6-11S337.4,377,335.5,377.6z"/>
			</g>
			<g>
				<path d="M322.8,361c0,0-0.6,3.9,6.9,7.6s17.7,4.9,24.9,5.9c7.2,1,16.8,1.7,19.9,2.5s20.2,6.9,20.2,6.9s5.9,1.8,6.1,1.9
					c0.2,0,2.4-0.3-4.4-2.9c-6.7-2.6-23.3-10.2-29.1-10.8s-21.8-2.6-26.1-4c-4.3-1.4-10.4-2.6-13.5-4.9
					C324.5,360.9,323.6,359.7,322.8,361z"/>
			</g>
			<g>
				
					<ellipse transform="matrix(0.75 -0.6615 0.6615 0.75 -182.6584 328.0874)" class="st8" cx="342.7" cy="405.7" rx="1.8" ry="2.1"/>
			</g>
			<g>
				<g>
					<path class="st8" d="M290.1,396.7c0,0-15-8.3-47.2-9.8c0,0-13.5-0.7-21.2,1c0,0,8.8,23.7,24.5,28.6s26.1,3.4,35.4-4
						C289.2,407.4,290.1,396.7,290.1,396.7z"/>
					<path d="M256.4,420.2c-3.3-0.5-6.8-1.3-10.6-2.5c-16.2-5-25-28.4-25.4-29.4c-0.1-0.4-0.1-0.8,0.1-1.2s0.5-0.6,0.9-0.7
						c7.8-1.7,21-1,21.6-1c32.1,1.5,47.1,9.7,47.8,10c0.5,0.3,0.8,0.8,0.7,1.3c0,0.5-1.1,11.3-9,16.7
						C275,419.5,266.8,421.7,256.4,420.2z M223.7,388.9c2.2,5.3,10.4,22.3,23,26.2c14.8,4.6,25,3.5,34.1-3.8c0,0,0.1,0,0.1-0.1
						c5.6-3.8,7.3-11.1,7.7-13.7c-3.6-1.7-18.5-8-45.7-9.2C242.7,388.3,231.3,387.7,223.7,388.9z"/>
				</g>
				<g>
					<path class="st5" d="M239.3,387.7c1.5,10,9.5,23.4,23.8,24.6c14.4,1.2,23.9-16.6,23.9-16.6l-36.8-8.2L239.3,387.7z"/>
					<path d="M261.6,413.5c-14.8-2.1-22.3-16.3-23.7-25.7c-0.1-0.4,0.1-0.8,0.3-1.1s0.6-0.5,1-0.5l10.9-0.1c0.1,0,0.2,0,0.3,0
						l36.8,8.2c0.4,0.1,0.8,0.4,1,0.8c0.2,0.4,0.2,0.9,0,1.2c-0.4,0.8-10.1,18.6-25.2,17.3C262.5,413.7,262.1,413.6,261.6,413.5z
						 M240.9,389.1c1.9,8.7,9,20.7,22.3,21.9c10.8,0.9,18.9-10.1,21.5-14.3L250,389L240.9,389.1z"/>
				</g>
				<g>
					<path d="M282.2,393.2c0,0-2.3,11.6-17.5,13.2c-15.2,1.6-20.7-18.9-20.7-18.9S268.8,386.9,282.2,393.2z"/>
				</g>
				<g>
					
						<ellipse transform="matrix(0.8126 -0.5828 0.5828 0.8126 -178.4579 235.5982)" class="st8" cx="277.2" cy="395.3" rx="2.1" ry="1.8"/>
				</g>
			</g>
			<g>
				<path d="M304.1,358.5c0,0-0.8,9.5-0.7,11.4c0.1,1.9-1.3,7.8-4.4,9.2c0,0-0.9,1.4,0.8,0.4c1.7-1,3.7-4.3,4.3-7.5
					S304.1,358.5,304.1,358.5z"/>
			</g>
			<g>
				<path class="st7" d="M390.5,219.3c-7.9-3.2-16.5-9-25.5-18.9c-18.6-20.4,8.4-33.9,8.4-33.9s-23.5-16.7-67.7,13.9
					c-22.6,15.6-39.2,22.1-50,24.7l-12.1,22.3c70.5,35.8,130.1,33.6,170.2,23.8L390.5,219.3z"/>
			</g>
			<g>
				<path d="M294.1,372.6c0,0-9.6,3.3-22,1.1c-12.4-2.2-34.4-6.1-45-5.5c-10.6,0.6-4.8,1.7-4.8,1.7s20.3,2.4,34.2,4.3
					c13.9,1.9,21.6,4.4,29.4,3.5s12.9-2.8,12.9-2.8s1.5-1.5,0.4-2.6S294.1,372.6,294.1,372.6z"/>
			</g>
			<g>
				<path d="M226,378.1c0,0,7.4-0.4,22.3,2.1s25.1,3.4,31.3,3.4c6.2,0,6-0.7,6-0.7s3.4-0.6-1,1.3c-4.4,1.9-28.5-1.4-28.5-1.4
					s-24.8-2.7-29.2-2.9C222.4,379.6,220.2,378.3,226,378.1z"/>
			</g>
			<g>
				<path d="M318.1,436.4c0,0-1,2.6-0.2,3.5c0.7,0.9,0.2,4.6-2,5.6s-4.5,0.6-5.8,0.4s-2.3-0.2-3.1,0.4c-0.7,0.6-0.9,1.3,0.1,1.5
					c0.9,0.1,3.6-0.1,4.9,0.2c1.3,0.3,4.1-0.4,5.3-1.9c1.2-1.6,2.2-3.8,1.8-5.4C318.7,439.2,317.3,439.3,318.1,436.4z"/>
			</g>
			<g>
				<path d="M294.8,433.1c0,0,0.2,2.8-0.8,3.4c-1,0.7-1.4,4.4,0.4,5.9c1.8,1.5,4.1,1.9,5.5,2s2.3,0.5,2.8,1.2
					c0.5,0.8,0.5,1.5-0.5,1.4s-3.4-1.1-4.7-1.2s-3.8-1.5-4.6-3.3c-0.8-1.9-1-4.3-0.3-5.7C293.4,435.6,294.7,436.1,294.8,433.1z"/>
			</g>
			<g>
				<path d="M254.8,317.9c0,0,0.5-0.1,1.3-0.4c0.9-0.2,2.1-0.6,3.8-1c1.6-0.4,3.6-0.8,5.9-1.2c2.3-0.4,4.9-0.8,7.8-1.1
					c0.7-0.1,1.5-0.2,2.2-0.2c0.7-0.1,1.5-0.1,2.3-0.2c1.6-0.1,3.2-0.2,4.8-0.2c1.7-0.1,3.4,0,5.1,0c1.7,0.1,3.5,0.2,5.3,0.4
					c1.8,0.2,3.7,0.4,5.5,0.8c0.9,0.2,1.9,0.3,2.8,0.6c0.9,0.3,1.8,0.5,2.8,0.8c1.8,0.5,3.6,1,5.5,1.5l2.7,0.5
					c0.4,0.1,0.9,0.2,1.4,0.2l1.4,0.1c0.9,0.1,1.9,0.2,2.8,0.2c0.9,0,1.9,0.1,2.8,0.1c1.9-0.1,3.8-0.1,5.6-0.2
					c3.7-0.2,7.5-0.5,11.1-0.7c0.9,0,1.8-0.1,2.7-0.1c0.9,0,1.8,0,2.6,0c1.7,0,3.5,0.1,5.1,0.2c0.8,0,1.6,0.1,2.4,0.2
					c0.8,0.1,1.6,0.2,2.4,0.3c0.8,0.1,1.5,0.2,2.3,0.4c0.7,0.1,1.5,0.3,2.2,0.4c1.4,0.2,2.8,0.6,4,1c1.3,0.4,2.5,0.6,3.6,1
					c1.1,0.4,2.1,0.7,3.1,1.1c1,0.3,1.8,0.6,2.6,1c3.1,1.3,4.8,2.1,4.8,2.1s-1.8-0.6-5-1.7c-0.8-0.3-1.7-0.6-2.6-0.8
					c-1-0.3-2-0.6-3.1-0.9c-1.1-0.4-2.3-0.5-3.6-0.8c-1.3-0.3-2.6-0.6-4-0.8c-2.8-0.5-5.9-0.7-9.1-0.9c-1.6,0-3.3-0.1-5,0
					c-0.9,0-1.7,0-2.6,0.1c-0.9,0.1-1.8,0.1-2.6,0.2c-3.6,0.2-7.2,0.6-11,0.9c-1.9,0.2-3.8,0.2-5.7,0.3c-1,0-1.9,0-2.9,0
					c-1,0-1.9-0.1-2.9-0.2l-1.5-0.1c-0.5,0-1-0.1-1.5-0.2l-2.9-0.5c-1.9-0.5-3.7-1-5.5-1.5c-0.9-0.3-1.8-0.5-2.7-0.8
					c-0.9-0.2-1.8-0.4-2.7-0.6c-1.8-0.4-3.6-0.6-5.3-0.9c-1.8-0.2-3.5-0.3-5.2-0.5c-1.7,0-3.4-0.2-5-0.2c-1.6,0-3.2,0-4.8,0.1
					c-0.8,0-1.5,0.1-2.3,0.1c-0.7,0-1.5,0.1-2.2,0.1c-2.9,0.2-5.5,0.5-7.8,0.7c-2.3,0.3-4.3,0.6-6,0.8c-1.7,0.3-3,0.5-3.8,0.7
					C255.3,317.8,254.8,317.9,254.8,317.9z"/>
			</g>
			<g>
				<path d="M256.6,305.3c0,0,0.5-0.1,1.3-0.4c0.9-0.2,2.1-0.6,3.8-1c1.6-0.4,3.6-0.8,5.9-1.2c2.3-0.4,4.9-0.8,7.8-1.1
					c0.7-0.1,1.5-0.2,2.2-0.2c0.7-0.1,1.5-0.1,2.3-0.2c1.6-0.1,3.2-0.2,4.8-0.2c1.7-0.1,3.4,0,5.1,0c1.7,0.1,3.5,0.2,5.3,0.4
					c1.8,0.2,3.7,0.4,5.5,0.8c0.9,0.2,1.9,0.3,2.8,0.6c0.9,0.3,1.8,0.5,2.8,0.8c1.8,0.5,3.6,1,5.5,1.5l2.7,0.5
					c0.4,0.1,0.9,0.2,1.4,0.2l1.4,0.1c0.9,0.1,1.9,0.2,2.8,0.2c0.9,0,1.9,0.1,2.8,0.1c1.9-0.1,3.8-0.1,5.6-0.2
					c3.7-0.2,7.5-0.5,11.1-0.7c0.9,0,1.8-0.1,2.7-0.1c0.9,0,1.8,0,2.6,0c1.7,0,3.5,0.1,5.1,0.2c0.8,0,1.6,0.1,2.4,0.2
					c0.8,0.1,1.6,0.2,2.4,0.3c0.8,0.1,1.5,0.2,2.3,0.4c0.7,0.1,1.5,0.3,2.2,0.4c1.4,0.2,2.8,0.6,4,1c1.3,0.4,2.5,0.6,3.6,1
					c1.1,0.4,2.1,0.7,3.1,1.1c1,0.3,1.8,0.6,2.6,1c3.1,1.3,4.8,2.1,4.8,2.1s-1.8-0.6-5-1.7c-0.8-0.3-1.7-0.6-2.6-0.8
					c-1-0.3-2-0.6-3.1-0.9c-1.1-0.4-2.3-0.5-3.6-0.8c-1.3-0.3-2.6-0.6-4-0.8c-2.8-0.5-5.9-0.7-9.1-0.9c-1.6,0-3.3-0.1-5,0
					c-0.9,0-1.7,0-2.6,0.1c-0.9,0.1-1.8,0.1-2.6,0.2c-3.6,0.2-7.2,0.6-11,0.9c-1.9,0.2-3.8,0.2-5.7,0.3c-1,0-1.9,0-2.9,0
					c-1,0-1.9-0.1-2.9-0.2l-1.5-0.1c-0.5,0-1-0.1-1.5-0.2l-2.9-0.5c-1.9-0.5-3.7-1-5.5-1.5c-0.9-0.3-1.8-0.5-2.7-0.8
					c-0.9-0.2-1.8-0.4-2.7-0.6c-1.8-0.4-3.6-0.6-5.3-0.9c-1.8-0.2-3.5-0.3-5.2-0.5c-1.7,0-3.4-0.2-5-0.2c-1.6,0-3.2,0-4.8,0.1
					c-0.8,0-1.5,0.1-2.3,0.1c-0.7,0-1.5,0.1-2.2,0.1c-2.9,0.2-5.5,0.5-7.8,0.7c-2.3,0.3-4.3,0.6-6,0.8c-1.7,0.3-3,0.5-3.8,0.7
					C257,305.2,256.6,305.3,256.6,305.3z"/>
			</g>
			<g>
				<path d="M333,165.9c0,0-1.6,0.8-4.3,2.3c-2.7,1.5-6.6,3.6-11.1,6.2c-2.3,1.3-4.7,2.8-7.2,4.4c-2.5,1.6-5.1,3.4-7.8,5.3
					c-2.7,1.9-5.3,4-7.9,6.2c-2.6,2.2-5.1,4.6-7.4,7.1c-2.3,2.5-4.4,5.2-6.1,8c-0.9,1.4-1.6,2.9-2.3,4.3c-0.6,1.5-1.2,2.9-1.6,4.5
					c-0.8,3-1,6-0.8,8.8c0.2,2.8,1,5.5,1.9,7.9c0.9,2.4,2.1,4.5,3.2,6.3c1.1,1.8,2.2,3.3,3.1,4.5c0.5,0.6,0.9,1.2,1.3,1.6
					c0.4,0.5,0.7,0.9,1,1.2c0.5,0.6,0.8,1,0.8,1s-0.3-0.3-1-0.8c-0.6-0.5-1.6-1.3-2.7-2.4c-1.1-1.1-2.4-2.5-3.8-4.2
					c-1.3-1.7-2.8-3.7-4-6.2c-1.2-2.4-2.3-5.3-2.8-8.5c-0.5-3.2-0.5-6.7,0.3-10.1c0.8-3.4,2.1-6.8,4-10c1.8-3.2,4.1-6.1,6.5-8.8
					c2.5-2.7,5.1-5.1,7.9-7.4c2.7-2.2,5.6-4.2,8.4-6.1c2.8-1.9,5.6-3.5,8.3-4.9c2.7-1.5,5.3-2.8,7.7-3.9c4.8-2.3,9-3.8,11.9-4.9
					C331.3,166.4,333,165.9,333,165.9z"/>
			</g>
			<g>
				<path d="M359.8,169.7c0,0-1.6,0.8-4.3,2.3c-2.7,1.5-6.6,3.6-11.1,6.2c-2.3,1.3-4.7,2.8-7.2,4.4c-2.5,1.6-5.1,3.4-7.8,5.3
					c-2.7,1.9-5.3,4-7.9,6.2c-2.6,2.2-5.1,4.6-7.4,7.1c-2.3,2.5-4.4,5.2-6.1,8c-0.9,1.4-1.6,2.9-2.3,4.3c-0.6,1.5-1.2,2.9-1.6,4.5
					c-0.8,3-1,6-0.8,8.8c0.2,2.8,1,5.5,1.9,7.9c0.9,2.4,2.1,4.5,3.2,6.3c1.1,1.8,2.2,3.3,3.1,4.5c0.5,0.6,0.9,1.2,1.3,1.6
					c0.4,0.5,0.7,0.9,1,1.2c0.5,0.6,0.8,1,0.8,1s-0.3-0.3-1-0.8c-0.6-0.5-1.6-1.3-2.7-2.4c-1.1-1.1-2.4-2.5-3.8-4.2
					c-1.3-1.7-2.8-3.7-4-6.2c-1.2-2.4-2.3-5.3-2.8-8.5c-0.5-3.2-0.5-6.7,0.3-10.1c0.8-3.4,2.1-6.8,4-10c1.8-3.2,4.1-6.1,6.5-8.8
					c2.5-2.7,5.1-5.1,7.9-7.4c2.7-2.2,5.6-4.2,8.4-6.1c2.8-1.9,5.6-3.5,8.3-4.9c2.7-1.5,5.3-2.8,7.7-3.9c4.8-2.3,9-3.8,11.9-4.9
					C358.1,170.1,359.8,169.7,359.8,169.7z"/>
			</g>
			<g>
				<path d="M373.4,204c0,0-1,0.6-2.6,1.5c-0.8,0.5-1.8,1.1-3,1.8c-1.1,0.7-2.4,1.5-3.8,2.4c-1.4,0.9-2.9,1.9-4.4,2.9
					c-1.5,1-3.1,2.2-4.7,3.4c-1.6,1.2-3.2,2.5-4.8,3.8c-1.6,1.4-3.1,2.8-4.5,4.4c-1.4,1.5-2.7,3.2-3.7,4.8c-1,1.7-1.9,3.5-2.4,5.2
					c-0.4,1.8-0.7,3.6-0.6,5.3c0,0.4,0.1,0.9,0.1,1.3c0.1,0.4,0.2,0.8,0.3,1.2c0.1,0.4,0.1,0.8,0.3,1.2c0.1,0.4,0.3,0.8,0.4,1.1
					c0.1,0.4,0.3,0.7,0.4,1.1c0.2,0.3,0.3,0.7,0.5,1c0.3,0.6,0.6,1.3,0.9,1.9c0.3,0.6,0.7,1.1,1,1.6c0.3,0.5,0.6,1,0.9,1.3
					c1.1,1.5,1.8,2.5,1.8,2.5s-0.9-0.7-2.4-1.9c-0.8-0.6-1.5-1.5-2.5-2.5c-0.5-0.5-0.9-1.1-1.3-1.8c-0.2-0.3-0.5-0.6-0.7-1
					c-0.2-0.4-0.4-0.7-0.6-1.1c-0.2-0.4-0.4-0.8-0.6-1.2c-0.2-0.4-0.3-0.9-0.5-1.3c-0.2-0.4-0.3-0.9-0.5-1.4c-0.1-0.5-0.2-1-0.3-1.5
					c-0.3-1-0.2-2.1-0.3-3.2c-0.1-0.6,0.1-1.1,0.1-1.7c0.1-0.6,0.1-1.1,0.2-1.7c0.3-1.1,0.5-2.2,1-3.3c0.4-1.1,0.9-2.1,1.5-3.1
					c1.2-2,2.6-3.9,4.2-5.6c1.6-1.7,3.3-3.2,5-4.7c1.8-1.4,3.5-2.7,5.3-3.8c1.8-1.1,3.6-2.1,5.3-3c0.9-0.4,1.7-0.9,2.5-1.2
					c0.8-0.4,1.6-0.7,2.4-1.1c1.5-0.7,3-1.2,4.2-1.7c1.3-0.5,2.4-0.8,3.3-1.1C372.3,204.2,373.4,204,373.4,204z"/>
			</g>
			<g>
				<g>
					<g>
						<path class="st6" d="M448.3,392.9c1.2,0.2,2.3,0.6,3.5,1.3c7.4,4.3-4.3,33.8-8.8,39.9c-4.5,6.1-15.4,14.5-24,16
							c0,0,4.5-14,5.8-19c1.3-5,5.9-20.5,7.6-25.6c1.7-5.1,3.3-9,3.3-9S441.9,391.8,448.3,392.9"/>
					</g>
				</g>
				<g>
					<g>
						<path d="M448.3,392.9c1.2,0.2,2.3,0.6,3.5,1.3c7.4,4.3-4.3,33.8-8.8,39.9c-4.5,6.1-15.4,14.5-24,16c0,0,4.5-14,5.8-19
							c1.3-5,5.9-20.5,7.6-25.6c1.7-5.1,3.3-9,3.3-9S441.9,391.8,448.3,392.9 M449,390.1L449,390.1c-8.3-1.5-15.5,3.8-16.3,4.4
							c-0.4,0.3-0.7,0.7-0.8,1.1c-0.1,0.2-1.6,4-3.3,9.1c-1.7,5.2-6.3,20.8-7.6,25.7c-1.3,4.9-5.7,18.7-5.8,18.9
							c-0.3,1,0.1,2.1,1.2,2.8c0.6,0.4,1.3,0.7,2,0.8c0.6,0.1,1.2,0.1,1.9,0c10.3-1.9,21.9-11.3,26.3-17.3
							c2.3-3.2,6.5-12.3,9.2-21.4c4.8-16.3,1.4-20.6-1.6-22.3C452.5,391.1,450.8,390.4,449,390.1z"/>
					</g>
				</g>
				<g>
					<path d="M431,417.6c0,0,1.5,1,2.4-1.1c0.9-2.1,5.6-7.7,8.5-7.2c3,0.5,4.6,2.4,4.7,4.3c0.1,1.9-1.6,6.6-1.6,6.6s3.2-7.2,2.3-9.7
						s-7.3-6.4-11.4-1.2C432,414.4,431,417.6,431,417.6z"/>
				</g>
				<g>
					<path d="M428.8,423.8c0,0,4.1,4,2,8.1c-2.2,4.2-4,5.8-4,5.8s-0.7,2.7,2.4-0.3s5-6.6,4.1-10.5
						C432.3,423,427.2,420.7,428.8,423.8z"/>
				</g>
				<g>
					<path d="M442.4,425.4c0,0-7.1,11.7-12.1,14.4c-5,2.7-4.4,4.2-1.1,2.2c3.3-2,13.1-9.1,14.3-14.3
						C444,425.2,444,422.8,442.4,425.4z"/>
				</g>
			</g>
			<g>
				<g>
					<g>
						<path class="st6" d="M174.7,354.5c6.5,0.7,11.2,7.1,11.2,7.1s0.4,4.2,0.7,9.6c0.2,5.4,0.3,21.5,0.2,26.7
							c-0.1,5.1,0.4,19.8,0.4,19.8c-7.9-3.9-16.1-14.9-18.7-22c-2.6-7.1-5.7-38.7,2.6-40.8C172.3,354.5,173.5,354.4,174.7,354.5"/>
					</g>
				</g>
				<g>
					<g>
						<path d="M174.7,354.5c6.5,0.7,11.2,7.1,11.2,7.1s0.4,4.2,0.7,9.6c0.2,5.4,0.3,21.5,0.2,26.7c-0.1,5.1,0.4,19.8,0.4,19.8
							c-7.9-3.9-16.1-14.9-18.7-22c-2.6-7.1-5.7-38.7,2.6-40.8C172.3,354.5,173.5,354.4,174.7,354.5 M169.4,352
							c-3.4,0.9-7.8,4-7.7,21c0.1,9.5,1.6,19.3,3,23.1c2.6,7.1,11.2,19.3,20.6,23.9c0.6,0.3,1.2,0.4,1.8,0.5c0.7,0.1,1.5,0,2.1-0.2
							c1.2-0.4,1.9-1.4,1.9-2.4c0-0.1-0.4-14.7-0.4-19.7c0.1-5.1,0-21.3-0.2-26.8c-0.2-5.4-0.7-9.5-0.7-9.7c0-0.4-0.2-0.9-0.5-1.3
							c-0.6-0.8-6.1-7.9-14.5-8.8l0,0C173,351.4,171.1,351.6,169.4,352z"/>
					</g>
				</g>
				<g>
					<path d="M184.5,382.9c0,0-1.8,0.6-2.1-1.7c-0.3-2.3-3.2-8.9-6.2-9.3c-3-0.4-5.1,1-5.7,2.8c-0.7,1.8-0.3,6.8-0.3,6.8
						s-1.1-7.8,0.5-10s8.7-4.1,11.3,2C184.4,379.6,184.5,382.9,184.5,382.9z"/>
				</g>
				<g>
					<path d="M184.9,389.5c0,0-5.1,2.7-4.1,7.3s2.3,6.7,2.3,6.7s-0.1,2.8-2.2-1c-2.2-3.7-3-7.7-1.1-11.2
						C181.8,387.8,187.3,387,184.9,389.5z"/>
				</g>
				<g>
					<path d="M171.4,387.3c0,0,3.6,13.2,7.7,17.2c4.1,4,3.1,5.3,0.5,2.4c-2.6-2.9-10.1-12.4-9.8-17.7
						C169.9,386.7,170.6,384.4,171.4,387.3z"/>
				</g>
			</g>
			<g>
				<path class="st9" d="M322.2,462.7c-5.2,1.1-11.8,0.7-18.1-0.4l0,0l0,0l0,0c-6.3-0.7-12.8-2.1-17.5-4.6
					c-12.3-6.6,0.7,8.2,16.3,11l0,0l0.2,0c0,0,0.1,0,0.1,0l0,0l0,0l0,0c0.1,0,0.2,0,0.2,0l0.3,0l0,0
					C319.4,470.3,335.7,459.7,322.2,462.7z"/>
			</g>
			<g>
				<path class="st9" d="M322,463.8c-5.4,2.9-12.1,2.9-18.4,1.7l0,0l0,0l0,0c-6.3-0.6-12.8-2.4-17.2-6.7
					c-11.6-11.4-0.4,16.1,15.2,19.4l0,0l0.2,0c0,0,0.1,0,0.1,0l0,0l0,0l0,0c0.1,0,0.2,0,0.2,0l0.3,0l0,0
					C318.2,479,336.2,456.1,322,463.8z"/>
			</g>
			<g>
				<path class="st10" d="M322.1,463.5c-5.3,2.5-12,2.3-18.3,1.2l0,0l0,0l0,0c-6.3-0.6-12.8-2.3-17.3-6.2
					c-11.8-10.2-0.1,14.1,15.5,17.3l0,0l0.2,0c0,0,0.1,0,0.1,0l0,0l0,0l0,0c0.1,0,0.2,0,0.2,0l0.3,0l0,0
					C318.5,476.8,336.1,457,322.1,463.5z"/>
			</g>
			<g>
				<path class="st11" d="M331.9,456.3c0,0,6,1.2,4.3,9.6S344.2,453.2,331.9,456.3z"/>
			</g>
			<g>
				<path class="st11" d="M277.9,448.7c0,0-6.1-0.5-6.8,8C270.5,465.1,266.9,442.3,277.9,448.7z"/>
			</g>
			<g>
				<defs>
					<path id="SVGID_5_" d="M322.1,463.5c-5.3,2.5-12,2.3-18.3,1.2l0,0l0,0l0,0c-6.3-0.6-12.8-2.3-17.3-6.2
						c-11.8-10.2-0.1,14.1,15.5,17.3l0,0l0.2,0c0,0,0.1,0,0.1,0l0,0l0,0l0,0c0.1,0,0.2,0,0.2,0l0.3,0l0,0
						C318.5,476.8,336.1,457,322.1,463.5z"/>
				</defs>
				<clipPath id="SVGID_6_">
					<use xlink:href="#SVGID_5_"  style="overflow:visible;"/>
				</clipPath>
				<g class="st12">
					<g>
						<path class="st8" d="M300.4,473l-4.2-0.6c-1.1-0.2-2-1.2-1.8-2.4l1-7.3c0.2-1.1,1.2-2,2.4-1.8l4.2,0.6c1.1,0.2,2,1.2,1.8,2.4
							l-1,7.3C302.7,472.4,301.6,473.2,300.4,473z"/>
					</g>
					<g>
						<path d="M300.6,473.6l-4.7-0.7c-1.3-0.2-2.2-1.4-2-2.7l1.1-7.8c0.2-1.3,1.4-2.2,2.7-2l4.7,0.7c1.3,0.2,2.2,1.4,2,2.7l-1.1,7.8
							C303.1,472.8,301.9,473.7,300.6,473.6z M296,463.1l-1,6.8c-0.1,1,0.6,2,1.6,2.1l3.7,0.5c1,0.1,2-0.6,2.1-1.6l1-6.8
							c0.1-1-0.6-2-1.6-2.1l-3.7-0.5C297,461.4,296.1,462.1,296,463.1z"/>
					</g>
				</g>
				<g class="st12">
					<g>
						<path class="st8" d="M308.8,474.2l-4.2-0.6c-1.1-0.2-2-1.2-1.8-2.4l1-7.3c0.2-1.1,1.2-2,2.4-1.8l4.2,0.6
							c1.1,0.2,2,1.2,1.8,2.4l-1,7.3C311,473.6,310,474.4,308.8,474.2z"/>
					</g>
					<g>
						<path d="M309,474.7l-4.7-0.7c-1.3-0.2-2.2-1.4-2-2.7l1.1-7.8c0.2-1.3,1.4-2.2,2.7-2l4.7,0.7c1.3,0.2,2.2,1.4,2,2.7l-1.1,7.8
							C311.5,474,310.3,474.9,309,474.7z M304.3,464.3l-1,6.8c-0.1,1,0.6,2,1.6,2.1l3.7,0.5c1,0.1,2-0.6,2.1-1.6l1-6.8
							c0.1-1-0.6-2-1.6-2.1l-3.7-0.5C305.4,462.5,304.5,463.2,304.3,464.3z"/>
					</g>
				</g>
			</g>
		</g>
		<g>
			<g>
				<path class="st6" d="M212,586.5c-15.6,0-30.4-10.6-44.1-31.5c-17.7-26.9-20.2-34.3-20.4-36.7c-5.6-0.5-18.1-1.8-23.3-2.4
					c-7.2-0.9-22.4-8.6-24-9.6c-1-0.6-1.4-1.9-1.1-3.1c0.2-0.8,1.1-2.7,4.8-2.7c2.7,0,6.5,1,11.2,3.1c1.8-0.6,7.5-2.3,14-2.3
					c2,0,4,0.2,5.8,0.5c4.5,0.8,7.5,2.3,8.9,4.4c0.2,0.3,0.3,0.6,0.5,0.9c1.6-0.5,4.3-1.1,7.9-1.1c7.3,0,14.9,2.5,22.6,7.3
					c2,1.1,34.8,18.5,43.7,39.1l4,6.9l20.4-20.6l0.2,3.1c0.1,1.1,2,28.1-9,37C230.3,581.5,222.5,586.5,212,586.5z"/>
			</g>
			<g>
				<path d="M103.9,501.8c2.3,0,5.8,0.8,11.2,3.2c0,0,6.6-2.4,14.1-2.4c1.8,0,3.7,0.1,5.5,0.5c9.4,1.8,8.6,5.8,8.6,5.8
					s3.3-1.6,9-1.6c5.4,0,12.9,1.5,21.9,7.1c0,0,34.3,17.9,43.1,38.5l4.9,8.5l19.5-19.7c0,0,2.1,27.3-8.5,35.8
					c-4.6,3.7-11.9,7.7-21.1,7.7c-12.1,0-27.3-7-43-30.9c-20.5-31.2-20.9-36.5-19.8-37.2c0.6,0.1,1,0.1,1,0.1s-0.3-0.2-0.6-0.2
					c-0.1,0-0.2,0-0.3,0.1c-4-0.4-19-1.8-24.9-2.6c-6.8-0.9-22-8.5-23.5-9.4C99.9,504.4,99.8,501.8,103.9,501.8 M103.9,499
					c-4.8,0-5.9,2.8-6.2,3.7c-0.5,1.8,0.2,3.7,1.7,4.7c1.6,1,17.2,8.8,24.5,9.8c5,0.7,16.3,1.8,22.3,2.3c0.8,3.7,4.8,12.4,20.4,36.2
					c14,21.3,29.3,32.2,45.3,32.2c10.9,0,19-5.2,22.9-8.3c11.6-9.3,9.6-37,9.5-38.2l-0.5-6.1l-4.3,4.3l-16.9,17.1l-3-5.2
					c-9-20.8-41.7-38.3-44.2-39.6c-7.9-5-15.7-7.5-23.3-7.5c-3.1,0-5.5,0.4-7.2,0.9c-1.6-2.4-4.9-4.1-9.8-5c-1.9-0.4-3.9-0.5-6-0.5
					c-6.2,0-11.7,1.5-14,2.2C110.5,500,106.7,499,103.9,499L103.9,499z"/>
			</g>
		</g>
		<g>
			<path d="M244.5,554.8c0,0,45.5-59.1,0-64S181,543.4,181,543.4S209.2,570.6,244.5,554.8z"/>
		</g>
		<g>
			<g>
				<polygon class="st4" points="281.7,605.8 306.1,581.4 330.5,605.8 344.7,591.6 306.1,553 267.5,591.6 				"/>
			</g>
			<g>
				
					<rect x="247.4" y="605.8" transform="matrix(0.7071 -0.7071 0.7071 0.7071 -360.0574 362.429)" class="st4" width="20.1" height="20.1"/>
			</g>
			<g>
				<polygon class="st4" points="281.7,625.9 306.1,650.3 330.5,625.9 344.7,640 344.7,640.1 306.1,678.7 267.5,640.1 267.5,640 
									"/>
			</g>
			<g>
				
					<rect x="344.7" y="605.8" transform="matrix(0.7071 -0.7071 0.7071 0.7071 -331.5835 431.1846)" class="st4" width="20.1" height="20.1"/>
			</g>
			<g>
				<polygon class="st4" points="320.5,615.8 320.5,615.8 306.1,601.4 295.4,612.1 295.4,612.1 294.2,613.3 291.7,615.8 
					291.7,615.8 291.7,615.8 291.7,615.9 306.1,630.3 320.5,615.9 320.5,615.8 				"/>
			</g>
		</g>
		<g class="st13">
			<path class="st14" d="M163.5,469.6c-4.6,18.6-23.5,29.9-42.1,25.3c-18.6-4.6-29.9-23.5-25.3-42.1c4.6-18.6,23.5-29.9,42.1-25.3
				C156.9,432.2,168.2,451,163.5,469.6z"/>
		</g>
		<g>
			<path class="st15" d="M161.2,465.3c-4.6,18.6-23.5,29.9-42.1,25.3c-18.6-4.6-29.9-23.5-25.3-42.1c4.6-18.6,23.5-29.9,42.1-25.3
				C154.5,427.8,165.9,446.7,161.2,465.3z"/>
		</g>
		<g>
			<path class="st8" d="M147.2,450.8c0.9-5.9-3.6-9-9.7-11.1l2-7.9l-4.8-1.2l-1.9,7.7c-1.3-0.3-2.6-0.6-3.9-0.9l1.9-7.8l-4.8-1.2
				l-2,7.9c-1.1-0.2-2.1-0.5-3.1-0.7l0,0l-6.7-1.7l-1.3,5.2c0,0,3.6,0.8,3.5,0.9c2,0.5,2.3,1.8,2.2,2.8l-2.3,9
				c0.1,0,0.3,0.1,0.5,0.2c-0.2,0-0.3-0.1-0.5-0.1l-3.2,12.7c-0.2,0.6-0.8,1.5-2.2,1.1c0,0.1-3.5-0.9-3.5-0.9l-2.4,5.5l6.3,1.6
				c1.2,0.3,2.3,0.6,3.4,0.9l-2,8l4.8,1.2l2-7.9c1.3,0.4,2.6,0.7,3.8,1l-2,7.9l4.8,1.2l2-8c8.2,1.6,14.4,0.9,17-6.5
				c2.1-6-0.1-9.4-4.4-11.7C144.2,457.1,146.6,455.1,147.2,450.8L147.2,450.8z M136.2,466.2c-1.5,6-11.6,2.8-14.9,1.9l2.7-10.6
				C127.3,458.4,137.8,460,136.2,466.2z M137.7,450.7c-1.4,5.5-9.8,2.7-12.5,2l2.4-9.6C130.4,443.7,139.1,445,137.7,450.7z"/>
		</g>
		<g>
			<defs>
				<path id="SVGID_7_" d="M408.2,628c0,0,42.3-35.1,42.3-37.2s-6.7-17.8-6.7-17.8l-24.9-36.3c0,0-16.2-1.4-23.2,4
					c-7.1,5.4-12.8,24.3-12.8,24.3s6.3,27,8.3,32.3C393.2,602.7,408.2,628,408.2,628z"/>
			</defs>
			<clipPath id="SVGID_8_">
				<use xlink:href="#SVGID_7_"  style="overflow:visible;"/>
			</clipPath>
			<g class="st16">
				<path class="st6" d="M412.3,609.8c0,0-22.9-32-22.7-54l-1-9.7l-24.4,7.6c0,0,8.6-24.6,21-26.8c12.4-2.2,38.8,1.4,46.7,51
					c7.9,49.6,2.1,41.1,2.1,41.1s15.8,10.7,21.4,14.8s15.8,17.9,16.8,19.4c0.9,1.5-1.7,6.3-12.3-6.8c0,0-10.2-1.8-17.7-7.8
					s-13-11.7-13-11.7S423.8,628.7,412.3,609.8z"/>
				<path d="M411.4,532.2c11,8.5,18.3,23.8,21.8,45.6c4.7,29.6,4.6,38.6,3.6,41.6c4.5,3.1,15,10.2,19.3,13.4
					c5.9,4.3,16.2,18.3,17.1,19.8c0.7,1.2,0.5,2.8-0.6,3.6c-1.5,1.1-5.2,1.5-13.4-8.5c-2.2-0.5-11-2.5-17.8-8
					c-6.2-5-11.1-9.8-12.6-11.3c-2.2,0-7.9-1.9-17.6-17.7c-1.3-1.9-23.1-32.7-22.9-54.8l-0.8-7.9l-25.5,7.9l1-2.7
					c0.4-1,9-25.2,21.9-27.6c3.8-0.7,12.7-1.5,22.1,3.7C408.4,530.1,409.9,531,411.4,532.2z M389.7,544.3l1.2,11.5l0,0.2
					c-0.2,21.3,22.2,52.8,22.4,53.1l0.1,0.1c10.4,17.1,15.3,16.4,15.3,16.4c0,0,0,0,0,0l0.8-0.3l0.6,0.6c0.1,0.1,5.5,5.7,12.8,11.6
					c7.1,5.8,17,7.5,17.1,7.5l0.5,0.1l0.3,0.4c7.3,9,9.9,8.4,10,8.3c0.1,0,0.1-0.1,0.1-0.1c-1.3-1.9-11.1-15.1-16.3-18.9
					c-4.7-3.4-16.7-11.6-20.3-14.1c-0.6-0.2-1.1-0.6-1.5-1.1l-3.8-5.6l5.3,3.6c0.5-2,0.9-9.8-3.9-39.7c-3.3-21-10.3-35.7-20.6-43.6
					c-10-7.7-20.4-6.8-24.4-6.1c-9.2,1.7-16.4,16.9-19,23.3L389.7,544.3z"/>
			</g>
		</g>
		<g>
			<path d="M365.2,563c0,0-52.4-59.6-7.3-69.8c45.1-10.1,69.8,50.6,69.8,50.6S402.3,576.6,365.2,563z"/>
		</g>
		<path d="M580.6,322.3L319.2,66.8c-3.5-3.4-8.1-5.3-13-5.3h-0.6c-4.9,0-9.5,1.9-13,5.3L31.4,322.3c-3.5,3.5-5.6,8.3-5.6,13.3v120.8
			c0,5,2,9.8,5.6,13.3l261.4,255.5c3.5,3.4,8.1,5.3,13,5.3h0.6c4.9,0,9.5-1.9,13-5.3l261.4-255.5c3.5-3.5,5.6-8.3,5.6-13.3V335.6
			C586.2,330.6,584.2,325.8,580.6,322.3z M306.3,714.3h-0.6c-0.6,0-1.2-0.2-1.7-0.7L42.7,458.1c-0.5-0.4-0.7-1.1-0.7-1.7V335.6
			c0-0.6,0.3-1.3,0.7-1.7L304.1,78.4c0.4-0.4,1-0.7,1.7-0.7h0.6c0.6,0,1.2,0.2,1.7,0.7l261.4,255.5c0.5,0.4,0.7,1.1,0.7,1.7v120.8
			c0,0.6-0.3,1.3-0.7,1.7L307.9,713.6C307.5,714.1,306.9,714.3,306.3,714.3z"/>
	</g>
</g>
</svg>
